<?xml version="1.0" encoding="UTF-8" standalone="no"?>
<!-- Created with Inkscape (http://www.inkscape.org/) -->

<svg
   xmlns:dc="http://purl.org/dc/elements/1.1/"
   xmlns:cc="http://creativecommons.org/ns#"
   xmlns:rdf="http://www.w3.org/1999/02/22-rdf-syntax-ns#"
   xmlns:svg="http://www.w3.org/2000/svg"
   xmlns="http://www.w3.org/2000/svg"
   xmlns:sodipodi="http://sodipodi.sourceforge.net/DTD/sodipodi-0.dtd"
   xmlns:inkscape="http://www.inkscape.org/namespaces/inkscape"
   width="44.326771"
   height="79.759842"
   id="svg7155"
   version="1.1"
   inkscape:version="0.48.4 r9939"
   sodipodi:docname="person.svg"
   inkscape:export-filename="X:\eclipse42\onetwograph\src\resource\img\person.png"
   inkscape:export-xdpi="78.987114"
   inkscape:export-ydpi="78.987114">
  <defs
     id="defs7157" />
  <sodipodi:namedview
     id="base"
     pagecolor="#ffffff"
     bordercolor="#666666"
     borderopacity="1.0"
     inkscape:pageopacity="0.0"
     inkscape:pageshadow="2"
     inkscape:zoom="1.979899"
     inkscape:cx="19.934029"
     inkscape:cy="28.904743"
     inkscape:document-units="px"
     inkscape:current-layer="DrawingGroup_132"
     showgrid="false"
     fit-margin-top="0"
     fit-margin-left="0"
     fit-margin-right="0"
     fit-margin-bottom="0"
     inkscape:window-width="522"
     inkscape:window-height="423"
     inkscape:window-x="1103"
     inkscape:window-y="743"
     inkscape:window-maximized="0" />
  <metadata
     id="metadata7160">
    <rdf:RDF>
      <cc:Work
         rdf:about="">
        <dc:format>image/svg+xml</dc:format>
        <dc:type
           rdf:resource="http://purl.org/dc/dcmitype/StillImage" />
        <dc:title></dc:title>
      </cc:Work>
    </rdf:RDF>
  </metadata>
  <g
     inkscape:label="Layer 1"
     inkscape:groupmode="layer"
     id="layer1"
     transform="translate(-352.83661,-492.48226)">
    <g
       transform="matrix(0.03543307,0,0,0.03543307,-178.65944,465.90746)"
       style="visibility:visible"
       id="DrawingGroup_132">
      <g
         id="g2290">
        <rect
           style="fill:none;stroke:none"
           id="rect2292"
           height="1001"
           width="1251"
           y="750"
           x="15000" />
      </g>
      <g
         id="g2294">
        <rect
           style="fill:none;stroke:none"
           id="rect2296"
           height="1001"
           width="1251"
           y="2000"
           x="15000" />
      </g>
      <g
         id="g2299">
        <rect
           x="15000"
           y="750"
           width="1251"
           height="2251"
           id="rect2301"
           style="fill:none;stroke:none" />
      </g>
      <path
         style="fill:none;stroke:#000000;stroke-width:80;stroke-linejoin:round"
         inkscape:connector-curvature="0"
         d="m 15625,1375 c -37,0 -68,-8 -100,-27 -32,-18 -55,-41 -73,-73 -19,-32 -27,-63 -27,-100 0,-37 8,-68 27,-100 18,-32 41,-55 73,-73 32,-19 63,-27 100,-27 37,0 68,8 100,27 32,18 55,41 73,73 19,32 27,63 27,100 0,37 -8,68 -27,100 -18,32 -41,55 -73,73 -32,19 -63,27 -100,27 l 0,0 z"
         id="Drawing_507_0" />
      <g
         id="g2306">
        <path
           id="Drawing_508_0"
           d="m 15625,1500 -500,500"
           inkscape:connector-curvature="0"
           style="fill:none;stroke:#000000;stroke-width:80;stroke-linejoin:round" />
      </g>
      <g
         id="g2309">
        <path
           id="Drawing_509_0"
           d="m 16125,2000 -500,-500"
           inkscape:connector-curvature="0"
           style="fill:none;stroke:#000000;stroke-width:80;stroke-linejoin:round" />
      </g>
      <g
         id="g2312">
        <path
           id="Drawing_510_0"
           d="m 15625,1375 0,750"
           inkscape:connector-curvature="0"
           style="fill:none;stroke:#000000;stroke-width:80;stroke-linejoin:round" />
      </g>
      <g
         id="g2315">
        <path
           id="Drawing_511_0"
           d="m 15625,2125 -375,625"
           inkscape:connector-curvature="0"
           style="fill:none;stroke:#000000;stroke-width:80;stroke-linejoin:round" />
      </g>
      <g
         id="g2318">
        <path
           id="Drawing_512_0"
           d="m 16000,2750 -375,-625"
           inkscape:connector-curvature="0"
           style="fill:none;stroke:#000000;stroke-width:80;stroke-linejoin:round" />
      </g>
    </g>
  </g>
</svg>
