<?xml version="1.0" encoding="UTF-8" standalone="no"?>
<!-- Created with Inkscape (http://www.inkscape.org/) -->

<svg
   xmlns:dc="http://purl.org/dc/elements/1.1/"
   xmlns:cc="http://creativecommons.org/ns#"
   xmlns:rdf="http://www.w3.org/1999/02/22-rdf-syntax-ns#"
   xmlns:svg="http://www.w3.org/2000/svg"
   xmlns="http://www.w3.org/2000/svg"
   xmlns:sodipodi="http://sodipodi.sourceforge.net/DTD/sodipodi-0.dtd"
   xmlns:inkscape="http://www.inkscape.org/namespaces/inkscape"
   width="27.704723"
   height="27.704723"
   id="svg8755"
   version="1.1"
   inkscape:version="0.48.4 r9939"
   sodipodi:docname="r_helps.svg"
   inkscape:export-filename="X:\eclipse42\onetwograph\src\resource\img\r_helps.png"
   inkscape:export-xdpi="90.18"
   inkscape:export-ydpi="90.18">
  <defs
     id="defs8757" />
  <sodipodi:namedview
     id="base"
     pagecolor="#ffffff"
     bordercolor="#666666"
     borderopacity="1.0"
     inkscape:pageopacity="0.0"
     inkscape:pageshadow="2"
     inkscape:zoom="2.8"
     inkscape:cx="18.873415"
     inkscape:cy="4.7236765"
     inkscape:document-units="px"
     inkscape:current-layer="layer1"
     showgrid="false"
     fit-margin-top="2"
     fit-margin-left="2"
     fit-margin-right="2"
     fit-margin-bottom="2"
     inkscape:window-width="463"
     inkscape:window-height="423"
     inkscape:window-x="1264"
     inkscape:window-y="904"
     inkscape:window-maximized="0" />
  <metadata
     id="metadata8760">
    <rdf:RDF>
      <cc:Work
         rdf:about="">
        <dc:format>image/svg+xml</dc:format>
        <dc:type
           rdf:resource="http://purl.org/dc/dcmitype/StillImage" />
        <dc:title></dc:title>
      </cc:Work>
    </rdf:RDF>
  </metadata>
  <g
     inkscape:label="Layer 1"
     inkscape:groupmode="layer"
     id="layer1"
     transform="translate(-361.14764,-518.50982)">
    <g
       style="visibility:visible"
       id="g1396"
       transform="matrix(0.03543307,0,0,0.03543307,-568.24604,89.431091)">
      <path
         id="Drawing_258_0"
         d="m 26621,12810 c -57,0 -106,-13 -155,-41 -50,-29 -85,-64 -114,-114 -28,-49 -41,-98 -41,-154 0,-57 13,-106 41,-155 29,-50 64,-85 114,-114 49,-28 98,-41 155,-41 56,0 105,13 154,41 50,29 85,64 114,114 28,49 41,98 41,155 0,56 -13,105 -41,154 -29,50 -64,85 -114,114 -49,28 -98,41 -154,41 l 0,0 z"
         inkscape:connector-curvature="0"
         style="fill:#ffffff;stroke:#000000;stroke-width:50;stroke-linejoin:round" />
    </g>
    <g
       style="visibility:visible"
       id="g1399"
       transform="matrix(0.03543307,0,0,0.03543307,-568.24604,89.431091)">
      <rect
         x="26517"
         y="12190"
         width="208"
         height="311"
         id="rect1401"
         style="fill:none;stroke:none" />
      <path
         id="Drawing_259_0"
         d="m 26620,12500 104,-310 -207,0 103,310 z"
         inkscape:connector-curvature="0"
         style="fill:#000000;stroke:none" />
    </g>
    <g
       style="visibility:visible"
       id="g1404"
       transform="matrix(0.03543307,0,0,0.03543307,-568.24604,89.431091)">
      <rect
         x="26309"
         y="12396"
         width="313"
         height="209"
         id="rect1406"
         style="fill:none;stroke:none" />
      <path
         id="Drawing_260_0"
         d="m 26620,12500 -310,-104 0,207 310,-103 z"
         inkscape:connector-curvature="0"
         style="fill:#000000;stroke:none" />
    </g>
    <g
       style="visibility:visible"
       id="g1409"
       transform="matrix(0.03543307,0,0,0.03543307,-568.24604,89.431091)">
      <rect
         x="26516"
         y="12499"
         width="208"
         height="312"
         id="rect1411"
         style="fill:none;stroke:none" />
      <path
         id="Drawing_261_0"
         d="m 26620,12500 -104,310 207,0 -103,-310 z"
         inkscape:connector-curvature="0"
         style="fill:#000000;stroke:none" />
    </g>
    <g
       style="visibility:visible"
       id="g1414"
       transform="matrix(0.03543307,0,0,0.03543307,-568.24604,89.431091)">
      <rect
         x="26619"
         y="12396"
         width="312"
         height="209"
         id="rect1416"
         style="fill:none;stroke:none" />
      <path
         id="Drawing_262_0"
         d="m 26620,12500 310,104 0,-207 -310,103 z"
         inkscape:connector-curvature="0"
         style="fill:#000000;stroke:none" />
    </g>
    <g
       style="visibility:visible"
       id="g1419"
       transform="matrix(0.03543307,0,0,0.03543307,-568.24604,89.431091)">
      <path
         id="Drawing_263_0"
         d="m 26626,12660 c -29,0 -53,-6 -78,-21 -24,-14 -42,-32 -56,-56 -15,-25 -21,-49 -21,-77 0,-29 6,-53 21,-78 14,-24 32,-42 56,-56 25,-15 49,-21 78,-21 28,0 52,6 77,21 24,14 42,32 56,56 15,25 21,49 21,78 0,28 -6,52 -21,77 -14,24 -32,42 -56,56 -25,15 -49,21 -77,21 l 0,0 z"
         inkscape:connector-curvature="0"
         style="fill:#ffffff;stroke:#000000;stroke-width:50;stroke-linejoin:round" />
    </g>
  </g>
</svg>
