<?xml version="1.0" encoding="UTF-8" standalone="no"?>
<!-- Created with Inkscape (http://www.inkscape.org/) -->

<svg
   xmlns:dc="http://purl.org/dc/elements/1.1/"
   xmlns:cc="http://creativecommons.org/ns#"
   xmlns:rdf="http://www.w3.org/1999/02/22-rdf-syntax-ns#"
   xmlns:svg="http://www.w3.org/2000/svg"
   xmlns="http://www.w3.org/2000/svg"
   xmlns:sodipodi="http://sodipodi.sourceforge.net/DTD/sodipodi-0.dtd"
   xmlns:inkscape="http://www.inkscape.org/namespaces/inkscape"
   width="27.917322"
   height="27.917322"
   id="svg8865"
   version="1.1"
   inkscape:version="0.48.4 r9939"
   sodipodi:docname="New document 24">
  <defs
     id="defs8867" />
  <sodipodi:namedview
     id="base"
     pagecolor="#ffffff"
     bordercolor="#666666"
     borderopacity="1.0"
     inkscape:pageopacity="0.0"
     inkscape:pageshadow="2"
     inkscape:zoom="3.959798"
     inkscape:cx="17.12881"
     inkscape:cy="10.338769"
     inkscape:document-units="px"
     inkscape:current-layer="layer1"
     showgrid="false"
     fit-margin-top="2"
     fit-margin-left="2"
     fit-margin-right="2"
     fit-margin-bottom="2"
     inkscape:window-width="463"
     inkscape:window-height="423"
     inkscape:window-x="1103"
     inkscape:window-y="743"
     inkscape:window-maximized="0" />
  <metadata
     id="metadata8870">
    <rdf:RDF>
      <cc:Work
         rdf:about="">
        <dc:format>image/svg+xml</dc:format>
        <dc:type
           rdf:resource="http://purl.org/dc/dcmitype/StillImage" />
        <dc:title></dc:title>
      </cc:Work>
    </rdf:RDF>
  </metadata>
  <g
     inkscape:label="Layer 1"
     inkscape:groupmode="layer"
     id="layer1"
     transform="translate(-314.61277,-478.40352)">
    <g
       style="visibility:visible"
       id="g2577"
       transform="matrix(0.03543307,0,0,0.03543307,-615.27697,1.1712497)">
      <path
         id="Drawing_579_0"
         d="m 26350,14150 170,-170"
         inkscape:connector-curvature="0"
         style="fill:none;stroke:#000000;stroke-width:100;stroke-linejoin:round" />
    </g>
    <g
       style="visibility:visible"
       id="g2580"
       transform="matrix(0.03543307,0,0,0.03543307,-615.27697,1.1712497)">
      <path
         id="Drawing_580_0"
         d="m 26376,14126 249,-251"
         inkscape:connector-curvature="0"
         style="fill:none;stroke:#000000;stroke-width:50;stroke-linejoin:round" />
    </g>
    <g
       style="visibility:visible"
       id="g2583"
       transform="matrix(0.03543307,0,0,0.03543307,-615.27697,1.1712497)">
      <path
         id="Drawing_581_0"
         d="m 26725,14000 c -41,0 -77,-9 -112,-30 -36,-21 -62,-47 -83,-82 -21,-36 -30,-72 -30,-113 0,-41 9,-77 30,-112 21,-36 47,-62 83,-83 35,-21 71,-30 112,-30 41,0 77,9 113,30 35,21 61,47 82,83 21,35 30,71 30,112 0,41 -9,77 -30,113 -21,35 -47,61 -82,82 -36,21 -72,30 -113,30 l 0,0 z"
         inkscape:connector-curvature="0"
         style="fill:#ffffff;stroke:#000000;stroke-width:50;stroke-linejoin:round" />
    </g>
    <g
       style="visibility:visible"
       id="g2586"
       transform="matrix(0.03543307,0,0,0.03543307,-615.27697,1.1712497)">
      <path
         id="Drawing_582_0"
         d="m 26820,13670 30,120"
         inkscape:connector-curvature="0"
         style="fill:none;stroke:#000000;stroke-width:50;stroke-linejoin:round" />
    </g>
  </g>
</svg>
