<?xml version="1.0" encoding="UTF-8" standalone="no"?>
<!-- Created with Inkscape (http://www.inkscape.org/) -->

<svg
   xmlns:dc="http://purl.org/dc/elements/1.1/"
   xmlns:cc="http://creativecommons.org/ns#"
   xmlns:rdf="http://www.w3.org/1999/02/22-rdf-syntax-ns#"
   xmlns:svg="http://www.w3.org/2000/svg"
   xmlns="http://www.w3.org/2000/svg"
   xmlns:sodipodi="http://sodipodi.sourceforge.net/DTD/sodipodi-0.dtd"
   xmlns:inkscape="http://www.inkscape.org/namespaces/inkscape"
   width="36.318897"
   height="19.48819"
   id="svg8463"
   version="1.1"
   inkscape:version="0.48.4 r9939"
   sodipodi:docname="New document 12">
  <defs
     id="defs8465" />
  <sodipodi:namedview
     id="base"
     pagecolor="#ffffff"
     bordercolor="#666666"
     borderopacity="1.0"
     inkscape:pageopacity="0.0"
     inkscape:pageshadow="2"
     inkscape:zoom="5.6"
     inkscape:cx="16.694584"
     inkscape:cy="7.2409381"
     inkscape:document-units="px"
     inkscape:current-layer="layer1"
     showgrid="false"
     fit-margin-top="0"
     fit-margin-left="0"
     fit-margin-right="0"
     fit-margin-bottom="0"
     inkscape:window-width="463"
     inkscape:window-height="423"
     inkscape:window-x="1218"
     inkscape:window-y="858"
     inkscape:window-maximized="0" />
  <metadata
     id="metadata8468">
    <rdf:RDF>
      <cc:Work
         rdf:about="">
        <dc:format>image/svg+xml</dc:format>
        <dc:type
           rdf:resource="http://purl.org/dc/dcmitype/StillImage" />
        <dc:title></dc:title>
      </cc:Work>
    </rdf:RDF>
  </metadata>
  <g
     inkscape:label="Layer 1"
     inkscape:groupmode="layer"
     id="layer1"
     transform="translate(-345.1406,-476.9038)">
    <g
       style="visibility:visible"
       id="g732"
       transform="matrix(0.03543307,0,0,0.03543307,-580.54835,287.33688)">
      <path
         id="Drawing_109_0"
         d="m 27125,5500 -250,0 -125,-125 -125,0 -125,125 0,125 50,0 125,-125 75,0 125,125 0,125 250,0 0,-250 z"
         inkscape:connector-curvature="0"
         style="fill:#000000;stroke:#000000;stroke-width:50;stroke-linejoin:round" />
    </g>
    <g
       style="visibility:visible"
       id="g735"
       transform="matrix(0.03543307,0,0,0.03543307,-580.54835,287.33688)">
      <path
         id="Drawing_110_0"
         d="m 26575,5750 -200,0 125,125 200,0 -125,-125 z"
         inkscape:connector-curvature="0"
         style="fill:#000000;stroke:#000000;stroke-width:50;stroke-linejoin:round" />
    </g>
    <g
       style="visibility:visible"
       id="g738"
       transform="matrix(0.03543307,0,0,0.03543307,-580.54835,287.33688)">
      <path
         id="Drawing_111_0"
         d="m 26125,5500 250,0 125,-125 250,0 125,125 0,250 -125,125 -250,0 -125,-125 -250,0"
         inkscape:connector-curvature="0"
         style="fill:none;stroke:#000000;stroke-width:50;stroke-linejoin:round" />
    </g>
  </g>
</svg>
