<?xml version="1.0" encoding="UTF-8" standalone="no"?>
<!-- Created with Inkscape (http://www.inkscape.org/) -->

<svg
   xmlns:dc="http://purl.org/dc/elements/1.1/"
   xmlns:cc="http://creativecommons.org/ns#"
   xmlns:rdf="http://www.w3.org/1999/02/22-rdf-syntax-ns#"
   xmlns:svg="http://www.w3.org/2000/svg"
   xmlns="http://www.w3.org/2000/svg"
   xmlns:sodipodi="http://sodipodi.sourceforge.net/DTD/sodipodi-0.dtd"
   xmlns:inkscape="http://www.inkscape.org/namespaces/inkscape"
   width="28.803169"
   height="23.488188"
   id="svg8589"
   version="1.1"
   inkscape:version="0.48.4 r9939"
   sodipodi:docname="r_receives.svg"
   inkscape:export-filename="X:\eclipse42\onetwograph\src\resource\img\r_receives.png"
   inkscape:export-xdpi="87.089996"
   inkscape:export-ydpi="87.089996">
  <defs
     id="defs8591" />
  <sodipodi:namedview
     id="base"
     pagecolor="#ffffff"
     bordercolor="#666666"
     borderopacity="1.0"
     inkscape:pageopacity="0.0"
     inkscape:pageshadow="2"
     inkscape:zoom="3.959798"
     inkscape:cx="26.756636"
     inkscape:cy="5.9996037"
     inkscape:document-units="px"
     inkscape:current-layer="layer1"
     showgrid="false"
     fit-margin-top="2"
     fit-margin-left="2"
     fit-margin-right="2"
     fit-margin-bottom="2"
     inkscape:window-width="463"
     inkscape:window-height="423"
     inkscape:window-x="-30920"
     inkscape:window-y="-31280"
     inkscape:window-maximized="0" />
  <metadata
     id="metadata8594">
    <rdf:RDF>
      <cc:Work
         rdf:about="">
        <dc:format>image/svg+xml</dc:format>
        <dc:type
           rdf:resource="http://purl.org/dc/dcmitype/StillImage" />
        <dc:title></dc:title>
      </cc:Work>
    </rdf:RDF>
  </metadata>
  <g
     inkscape:label="Layer 1"
     inkscape:groupmode="layer"
     id="layer1"
     transform="translate(-228.45556,-454.90381)">
    <g
       style="visibility:visible"
       id="g812"
       transform="matrix(0.03543307,0,0,0.03543307,-700.54835,172.55342)">
      <path
         id="Drawing_123_0"
         d="m 26950,8428 0,-6 0,-7 -1,-6 0,-6 -1,-6 -1,-6 -1,-7 -1,-5 -2,-6 -2,-6 -1,-5 -2,-6 -3,-5 -2,-5 -2,-5 -3,-4 -3,-5 -3,-4 -3,-4 -3,-3 -3,-4 -3,-3 -4,-3 -3,-2 -4,-2 -3,-2 -4,-2 -4,-1 -4,-1 -3,-1 -4,0 -4,0 -4,0 -3,1 -4,1 -4,1 -4,2 -3,2 -4,2 -3,2 -4,3 -3,3 -3,4 -3,3 -3,4 -3,4 -3,5 -3,4 -2,5 -2,5 -3,5 -2,6 -1,5 -2,6 -2,6 -1,5 -1,7 -1,6 -1,6 0,6 -1,6 0,7 0,6 0,0 0,-6 0,-7 1,-6 0,-6 1,-6 1,-6 1,-7 1,-5 2,-6 2,-6 1,-5 2,-6 3,-5 2,-5 2,-5 3,-4 3,-5 3,-4 3,-4 3,-3 3,-4 3,-3 4,-3 3,-2 4,-2 3,-2 4,-2 4,-1 4,-1 3,-1 4,0 4,0 4,0 3,1 4,1 4,1 4,2 3,2 4,2 3,2 4,3 3,3 3,4 3,3 3,4 3,4 3,5 3,4 2,5 2,5 3,5 2,6 1,5 2,6 2,6 1,5 1,7 1,6 1,6 0,6 1,6 0,7 0,6 0,0 z"
         inkscape:connector-curvature="0"
         style="fill:#99ccff;stroke:#000000;stroke-width:50;stroke-linejoin:round" />
      <rect
         x="26800"
         y="8300"
         width="151"
         height="251"
         id="rect815"
         style="fill:none;stroke:none" />
    </g>
    <g
       style="visibility:visible"
       id="g817"
       transform="matrix(0.03543307,0,0,0.03543307,-700.54835,172.55342)">
      <path
         id="Drawing_124_0"
         d="m 26450,8428 0,-6 0,-7 -1,-6 0,-6 -1,-6 -1,-6 -1,-7 -1,-5 -2,-6 -2,-6 -1,-5 -2,-6 -3,-5 -2,-5 -2,-5 -3,-4 -3,-5 -3,-4 -3,-4 -3,-3 -3,-4 -3,-3 -4,-3 -3,-2 -4,-2 -3,-2 -4,-2 -4,-1 -4,-1 -3,-1 -4,0 -4,0 -4,0 -3,1 -4,1 -4,1 -4,2 -3,2 -4,2 -3,2 -4,3 -3,3 -3,4 -3,3 -3,4 -3,4 -3,5 -3,4 -2,5 -2,5 -3,5 -2,6 -1,5 -2,6 -2,6 -1,5 -1,7 -1,6 -1,6 0,6 -1,6 0,7 0,6 0,0 0,-6 0,-7 1,-6 0,-6 1,-6 1,-6 1,-7 1,-5 2,-6 2,-6 1,-5 2,-6 3,-5 2,-5 2,-5 3,-4 3,-5 3,-4 3,-4 3,-3 3,-4 3,-3 4,-3 3,-2 4,-2 3,-2 4,-2 4,-1 4,-1 3,-1 4,0 4,0 4,0 3,1 4,1 4,1 4,2 3,2 4,2 3,2 4,3 3,3 3,4 3,3 3,4 3,4 3,5 3,4 2,5 2,5 3,5 2,6 1,5 2,6 2,6 1,5 1,7 1,6 1,6 0,6 1,6 0,7 0,6 0,0 z"
         inkscape:connector-curvature="0"
         style="fill:#99ccff;stroke:#000000;stroke-width:50;stroke-linejoin:round" />
      <rect
         x="26300"
         y="8300"
         width="151"
         height="251"
         id="rect820"
         style="fill:none;stroke:none" />
    </g>
    <g
       style="visibility:visible"
       id="g822"
       transform="matrix(0.03543307,0,0,0.03543307,-700.54835,172.55342)">
      <path
         id="Drawing_125_0"
         d="m 26425,8300 450,0"
         inkscape:connector-curvature="0"
         style="fill:none;stroke:#000000;stroke-width:50;stroke-linejoin:round" />
    </g>
    <g
       style="visibility:visible"
       id="g825"
       transform="matrix(0.03543307,0,0,0.03543307,-700.54835,172.55342)">
      <path
         id="Drawing_126_0"
         d="m 26300,8425 0,125 650,0 0,-125"
         inkscape:connector-curvature="0"
         style="fill:none;stroke:#000000;stroke-width:50;stroke-linejoin:round" />
    </g>
    <g
       style="visibility:visible"
       id="g828"
       transform="matrix(0.03543307,0,0,0.03543307,-700.54835,172.55342)">
      <path
         id="Drawing_127_0"
         d="m 26800,8425 0,125"
         inkscape:connector-curvature="0"
         style="fill:none;stroke:#000000;stroke-width:50;stroke-linejoin:round" />
    </g>
    <g
       style="visibility:visible"
       id="g831"
       transform="matrix(0.03543307,0,0,0.03543307,-700.54835,172.55342)">
      <path
         id="Drawing_128_0"
         d="m 26525,8475 -150,0 0,-175 300,0 0,175 -150,0 z"
         inkscape:connector-curvature="0"
         style="fill:#ffffff;stroke:#ffffff;stroke-linejoin:round" />
    </g>
    <g
       style="visibility:visible"
       id="g834"
       transform="matrix(0.03543307,0,0,0.03543307,-700.54835,172.55342)">
      <path
         id="Drawing_129_0"
         d="m 26375,8300 425,0"
         inkscape:connector-curvature="0"
         style="fill:none;stroke:#000000;stroke-width:50;stroke-linejoin:round" />
    </g>
    <g
       style="visibility:visible"
       id="g837"
       transform="matrix(0.03543307,0,0,0.03543307,-700.54835,172.55342)">
      <path
         id="Drawing_130_0"
         d="m 26675,8425 0,-375"
         inkscape:connector-curvature="0"
         style="fill:none;stroke:#000000;stroke-width:50;stroke-linejoin:round" />
    </g>
    <g
       style="visibility:visible"
       id="g840"
       transform="matrix(0.03543307,0,0,0.03543307,-700.54835,172.55342)">
      <path
         id="Drawing_131_0"
         d="m 26613,8175 -63,0 0,-125 125,0 0,125 -62,0 z"
         inkscape:connector-curvature="0"
         style="fill:#000000;stroke:#000000;stroke-width:50;stroke-linejoin:round" />
    </g>
  </g>
</svg>
