<?xml version="1.0" encoding="UTF-8" standalone="no"?>
<!-- Created with Inkscape (http://www.inkscape.org/) -->

<svg
   xmlns:dc="http://purl.org/dc/elements/1.1/"
   xmlns:cc="http://creativecommons.org/ns#"
   xmlns:rdf="http://www.w3.org/1999/02/22-rdf-syntax-ns#"
   xmlns:svg="http://www.w3.org/2000/svg"
   xmlns="http://www.w3.org/2000/svg"
   xmlns:sodipodi="http://sodipodi.sourceforge.net/DTD/sodipodi-0.dtd"
   xmlns:inkscape="http://www.inkscape.org/namespaces/inkscape"
   width="28.346457"
   height="19.488188"
   id="svg7638"
   version="1.1"
   inkscape:version="0.48.4 r9939"
   sodipodi:docname="New document 9">
  <defs
     id="defs7640" />
  <sodipodi:namedview
     id="base"
     pagecolor="#ffffff"
     bordercolor="#666666"
     borderopacity="1.0"
     inkscape:pageopacity="0.0"
     inkscape:pageshadow="2"
     inkscape:zoom="7.9195959"
     inkscape:cx="2.9839616"
     inkscape:cy="4.8188514"
     inkscape:document-units="px"
     inkscape:current-layer="layer1"
     showgrid="false"
     fit-margin-top="0"
     fit-margin-left="0"
     fit-margin-right="0"
     fit-margin-bottom="0"
     inkscape:window-width="663"
     inkscape:window-height="523"
     inkscape:window-x="1218"
     inkscape:window-y="858"
     inkscape:window-maximized="0" />
  <metadata
     id="metadata7643">
    <rdf:RDF>
      <cc:Work
         rdf:about="">
        <dc:format>image/svg+xml</dc:format>
        <dc:type
           rdf:resource="http://purl.org/dc/dcmitype/StillImage" />
        <dc:title></dc:title>
      </cc:Work>
    </rdf:RDF>
  </metadata>
  <g
     inkscape:label="Layer 1"
     inkscape:groupmode="layer"
     id="layer1"
     transform="translate(-360.82677,-522.61809)">
    <path
       style="fill:none;stroke:#000000;stroke-width:1.77165353000000000;stroke-linejoin:round;visibility:visible"
       inkscape:connector-curvature="0"
       d="m 375,523.50392 c 7.51181,0 13.2874,3.82677 13.2874,8.85827 0,5.03149 -5.77559,8.85826 -13.2874,8.85826 -7.51181,0 -13.2874,-3.82677 -13.2874,-8.85826 0,-5.0315 5.77559,-8.85827 13.2874,-8.85827 z"
       id="Drawing_9_0" />
    <rect
       style="fill:none;stroke:none;visibility:visible"
       id="rect121"
       height="17.751968"
       width="26.610235"
       y="523.50391"
       x="361.71259" />
    <g
       style="visibility:visible"
       id="g123"
       transform="matrix(0.03543307,0,0,0.03543307,-568.40549,430.49211)">
      <path
         id="Drawing_10_0"
         d="m 26623,3070 c -35,0 -64,-8 -94,-25 -30,-17 -52,-39 -69,-69 -17,-30 -25,-59 -25,-93 0,-35 8,-64 25,-94 17,-30 39,-52 69,-69 30,-17 59,-25 94,-25 34,0 63,8 93,25 30,17 52,39 69,69 17,30 25,59 25,94 0,34 -8,63 -25,93 -17,30 -39,52 -69,69 -30,17 -59,25 -93,25 l 0,0 z"
         inkscape:connector-curvature="0"
         style="fill:none;stroke:#000000;stroke-width:40;stroke-linejoin:round" />
    </g>
    <g
       style="visibility:visible"
       id="g126"
       transform="matrix(0.03543307,0,0,0.03543307,-568.40549,430.49211)">
      <rect
         x="26525"
         y="2780"
         width="201"
         height="201"
         id="rect128"
         style="fill:none;stroke:none" />
      <path
         id="Drawing_11_0"
         d="m 26625,2980 c -18,0 -34,-4 -50,-13 -16,-10 -27,-21 -37,-37 -9,-16 -13,-32 -13,-50 0,-18 4,-34 13,-50 10,-16 21,-27 37,-37 16,-9 32,-13 50,-13 18,0 34,4 50,13 16,10 27,21 37,37 9,16 13,32 13,50 0,18 -4,34 -13,50 -10,16 -21,27 -37,37 -16,9 -32,13 -50,13 l 0,0 z"
         inkscape:connector-curvature="0"
         style="fill:#000000;stroke:none" />
    </g>
  </g>
</svg>
